# 3ds Max Wavefront OBJ Exporter v0.97b - (c)2007 guruware
# File Created: 04.11.2023 20:44:21

mtllib cilinder1.mtl

#
# object Cylinder001


v  0.3000 0.0000 0.0000
v  0.2772 0.1148 0.0000
v  0.2121 0.2121 0.0000
v  0.1148 0.2772 0.0000
v  -0.0000 0.3000 0.0000
v  -0.1148 0.2772 0.0000
v  -0.2121 0.2121 0.0000
v  -0.2772 0.1148 0.0000
v  -0.3000 0.0000 0.0000
v  -0.2772 -0.1148 0.0000
v  -0.2121 -0.2121 0.0000
v  -0.1148 -0.2772 0.0000
v  0.0000 -0.3000 0.0000
v  0.1148 -0.2772 0.0000
v  0.2121 -0.2121 0.0000
v  0.2772 -0.1148 0.0000
v  0.3000 0.0000 0.3333
v  0.2772 0.1148 0.3333
v  0.2121 0.2121 0.3333
v  0.1148 0.2772 0.3333
v  -0.0000 0.3000 0.3333
v  -0.1148 0.2772 0.3333
v  -0.2121 0.2121 0.3333
v  -0.2772 0.1148 0.3333
v  -0.3000 0.0000 0.3333
v  -0.2772 -0.1148 0.3333
v  -0.2121 -0.2121 0.3333
v  -0.1148 -0.2772 0.3333
v  0.0000 -0.3000 0.3333
v  0.1148 -0.2772 0.3333
v  0.2121 -0.2121 0.3333
v  0.2772 -0.1148 0.3333
v  0.3000 0.0000 0.6667
v  0.2772 0.1148 0.6667
v  0.2121 0.2121 0.6667
v  0.1148 0.2772 0.6667
v  -0.0000 0.3000 0.6667
v  -0.1148 0.2772 0.6667
v  -0.2121 0.2121 0.6667
v  -0.2772 0.1148 0.6667
v  -0.3000 0.0000 0.6667
v  -0.2772 -0.1148 0.6667
v  -0.2121 -0.2121 0.6667
v  -0.1148 -0.2772 0.6667
v  0.0000 -0.3000 0.6667
v  0.1148 -0.2772 0.6667
v  0.2121 -0.2121 0.6667
v  0.2772 -0.1148 0.6667
v  0.3000 0.0000 1.0000
v  0.2772 0.1148 1.0000
v  0.2121 0.2121 1.0000
v  0.1148 0.2772 1.0000
v  -0.0000 0.3000 1.0000
v  -0.1148 0.2772 1.0000
v  -0.2121 0.2121 1.0000
v  -0.2772 0.1148 1.0000
v  -0.3000 0.0000 1.0000
v  -0.2772 -0.1148 1.0000
v  -0.2121 -0.2121 1.0000
v  -0.1148 -0.2772 1.0000
v  0.0000 -0.3000 1.0000
v  0.1148 -0.2772 1.0000
v  0.2121 -0.2121 1.0000
v  0.2772 -0.1148 1.0000
# 64 vertices

vn 0.0000 0.0000 -1.0000
vn 0.0000 0.0000 -1.0000
vn 0.0000 0.0000 -1.0000
vn 0.0000 0.0000 -1.0000
vn 0.0000 0.0000 -1.0000
vn 0.0000 0.0000 -1.0000
vn 0.0000 0.0000 -1.0000
vn 0.0000 0.0000 -1.0000
vn 0.0000 0.0000 -1.0000
vn 0.0000 0.0000 -1.0000
vn 0.0000 0.0000 -1.0000
vn 0.0000 0.0000 -1.0000
vn 0.0000 0.0000 -1.0000
vn 0.0000 0.0000 -1.0000
vn 0.0000 0.0000 -1.0000
vn 0.0000 0.0000 -1.0000
vn 1.0000 0.0000 0.0000
vn 0.9239 0.3827 0.0000
vn 0.9239 0.3827 0.0000
vn 1.0000 0.0000 0.0000
vn 0.9239 0.3827 0.0000
vn 0.7071 0.7071 0.0000
vn 0.7071 0.7071 0.0000
vn 0.9239 0.3827 0.0000
vn 0.7071 0.7071 0.0000
vn 0.3827 0.9239 0.0000
vn 0.3827 0.9239 0.0000
vn 0.7071 0.7071 0.0000
vn 0.3827 0.9239 0.0000
vn 0.0000 1.0000 0.0000
vn 0.0000 1.0000 0.0000
vn 0.3827 0.9239 0.0000
vn 0.0000 1.0000 0.0000
vn -0.3827 0.9239 0.0000
vn -0.3827 0.9239 0.0000
vn 0.0000 1.0000 0.0000
vn -0.3827 0.9239 0.0000
vn -0.7071 0.7071 0.0000
vn -0.7071 0.7071 0.0000
vn -0.3827 0.9239 0.0000
vn -0.7071 0.7071 0.0000
vn -0.9239 0.3827 0.0000
vn -0.9239 0.3827 0.0000
vn -0.7071 0.7071 0.0000
vn -0.9239 0.3827 0.0000
vn -1.0000 0.0000 0.0000
vn -1.0000 0.0000 0.0000
vn -0.9239 0.3827 0.0000
vn -1.0000 0.0000 0.0000
vn -0.9239 -0.3827 0.0000
vn -0.9239 -0.3827 0.0000
vn -1.0000 0.0000 0.0000
vn -0.9239 -0.3827 0.0000
vn -0.7071 -0.7071 0.0000
vn -0.7071 -0.7071 0.0000
vn -0.9239 -0.3827 0.0000
vn -0.7071 -0.7071 0.0000
vn -0.3827 -0.9239 0.0000
vn -0.3827 -0.9239 0.0000
vn -0.7071 -0.7071 0.0000
vn -0.3827 -0.9239 0.0000
vn 0.0000 -1.0000 0.0000
vn 0.0000 -1.0000 0.0000
vn -0.3827 -0.9239 0.0000
vn 0.0000 -1.0000 0.0000
vn 0.3827 -0.9239 0.0000
vn 0.3827 -0.9239 0.0000
vn 0.0000 -1.0000 0.0000
vn 0.3827 -0.9239 0.0000
vn 0.7071 -0.7071 0.0000
vn 0.7071 -0.7071 0.0000
vn 0.3827 -0.9239 0.0000
vn 0.7071 -0.7071 0.0000
vn 0.9239 -0.3827 0.0000
vn 0.9239 -0.3827 0.0000
vn 0.7071 -0.7071 0.0000
vn 0.9239 -0.3827 0.0000
vn 1.0000 0.0000 0.0000
vn 1.0000 0.0000 0.0000
vn 0.9239 -0.3827 0.0000
vn 1.0000 0.0000 0.0000
vn 0.9239 0.3827 0.0000
vn 0.9239 0.3827 0.0000
vn 1.0000 0.0000 0.0000
vn 0.9239 0.3827 0.0000
vn 0.7071 0.7071 0.0000
vn 0.7071 0.7071 0.0000
vn 0.9239 0.3827 0.0000
vn 0.7071 0.7071 0.0000
vn 0.3827 0.9239 0.0000
vn 0.3827 0.9239 0.0000
vn 0.7071 0.7071 0.0000
vn 0.3827 0.9239 0.0000
vn 0.0000 1.0000 0.0000
vn 0.0000 1.0000 0.0000
vn 0.3827 0.9239 0.0000
vn 0.0000 1.0000 0.0000
vn -0.3827 0.9239 0.0000
vn -0.3827 0.9239 0.0000
vn 0.0000 1.0000 0.0000
vn -0.3827 0.9239 0.0000
vn -0.7071 0.7071 0.0000
vn -0.7071 0.7071 0.0000
vn -0.3827 0.9239 0.0000
vn -0.7071 0.7071 0.0000
vn -0.9239 0.3827 0.0000
vn -0.9239 0.3827 0.0000
vn -0.7071 0.7071 0.0000
vn -0.9239 0.3827 0.0000
vn -1.0000 0.0000 0.0000
vn -1.0000 0.0000 0.0000
vn -0.9239 0.3827 0.0000
vn -1.0000 0.0000 0.0000
vn -0.9239 -0.3827 0.0000
vn -0.9239 -0.3827 0.0000
vn -1.0000 0.0000 0.0000
vn -0.9239 -0.3827 0.0000
vn -0.7071 -0.7071 0.0000
vn -0.7071 -0.7071 0.0000
vn -0.9239 -0.3827 0.0000
vn -0.7071 -0.7071 0.0000
vn -0.3827 -0.9239 0.0000
vn -0.3827 -0.9239 0.0000
vn -0.7071 -0.7071 0.0000
vn -0.3827 -0.9239 0.0000
vn 0.0000 -1.0000 0.0000
vn 0.0000 -1.0000 0.0000
vn -0.3827 -0.9239 0.0000
vn 0.0000 -1.0000 0.0000
vn 0.3827 -0.9239 0.0000
vn 0.3827 -0.9239 0.0000
vn 0.0000 -1.0000 0.0000
vn 0.3827 -0.9239 0.0000
vn 0.7071 -0.7071 0.0000
vn 0.7071 -0.7071 0.0000
vn 0.3827 -0.9239 0.0000
vn 0.7071 -0.7071 0.0000
vn 0.9239 -0.3827 0.0000
vn 0.9239 -0.3827 0.0000
vn 0.7071 -0.7071 0.0000
vn 0.9239 -0.3827 0.0000
vn 1.0000 0.0000 0.0000
vn 1.0000 0.0000 0.0000
vn 0.9239 -0.3827 0.0000
vn 1.0000 0.0000 0.0000
vn 0.9239 0.3827 0.0000
vn 0.9239 0.3827 0.0000
vn 1.0000 0.0000 0.0000
vn 0.9239 0.3827 0.0000
vn 0.7071 0.7071 0.0000
vn 0.7071 0.7071 0.0000
vn 0.9239 0.3827 0.0000
vn 0.7071 0.7071 0.0000
vn 0.3827 0.9239 0.0000
vn 0.3827 0.9239 0.0000
vn 0.7071 0.7071 0.0000
vn 0.3827 0.9239 0.0000
vn 0.0000 1.0000 0.0000
vn -0.0000 1.0000 0.0000
vn 0.3827 0.9239 0.0000
vn 0.0000 1.0000 0.0000
vn -0.3827 0.9239 0.0000
vn -0.3827 0.9239 0.0000
vn -0.0000 1.0000 0.0000
vn -0.3827 0.9239 0.0000
vn -0.7071 0.7071 0.0000
vn -0.7071 0.7071 0.0000
vn -0.3827 0.9239 0.0000
vn -0.7071 0.7071 0.0000
vn -0.9239 0.3827 0.0000
vn -0.9239 0.3827 0.0000
vn -0.7071 0.7071 0.0000
vn -0.9239 0.3827 0.0000
vn -1.0000 0.0000 0.0000
vn -1.0000 0.0000 0.0000
vn -0.9239 0.3827 0.0000
vn -1.0000 0.0000 0.0000
vn -0.9239 -0.3827 0.0000
vn -0.9239 -0.3827 0.0000
vn -1.0000 0.0000 0.0000
vn -0.9239 -0.3827 0.0000
vn -0.7071 -0.7071 0.0000
vn -0.7071 -0.7071 0.0000
vn -0.9239 -0.3827 0.0000
vn -0.7071 -0.7071 0.0000
vn -0.3827 -0.9239 0.0000
vn -0.3827 -0.9239 0.0000
vn -0.7071 -0.7071 0.0000
vn -0.3827 -0.9239 0.0000
vn 0.0000 -1.0000 0.0000
vn 0.0000 -1.0000 0.0000
vn -0.3827 -0.9239 0.0000
vn 0.0000 -1.0000 0.0000
vn 0.3827 -0.9239 0.0000
vn 0.3827 -0.9239 0.0000
vn 0.0000 -1.0000 0.0000
vn 0.3827 -0.9239 0.0000
vn 0.7071 -0.7071 0.0000
vn 0.7071 -0.7071 0.0000
vn 0.3827 -0.9239 0.0000
vn 0.7071 -0.7071 0.0000
vn 0.9239 -0.3827 0.0000
vn 0.9239 -0.3827 0.0000
vn 0.7071 -0.7071 0.0000
vn 0.9239 -0.3827 0.0000
vn 1.0000 0.0000 0.0000
vn 1.0000 0.0000 0.0000
vn 0.9239 -0.3827 0.0000
vn 0.0000 0.0000 1.0000
vn 0.0000 0.0000 1.0000
vn 0.0000 0.0000 1.0000
vn 0.0000 0.0000 1.0000
vn 0.0000 0.0000 1.0000
vn 0.0000 0.0000 1.0000
vn 0.0000 0.0000 1.0000
vn 0.0000 0.0000 1.0000
vn 0.0000 0.0000 1.0000
vn 0.0000 0.0000 1.0000
vn 0.0000 0.0000 1.0000
vn 0.0000 0.0000 1.0000
vn 0.0000 0.0000 1.0000
vn 0.0000 0.0000 1.0000
vn 0.0000 0.0000 1.0000
vn 0.0000 0.0000 1.0000
# 224 vertex normals

vt 0.7500 0.0000 1.0000
vt 0.8125 0.0000 1.0000
vt 0.8750 0.0000 1.0000
vt 0.9375 0.0000 1.0000
vt 0.0000 0.0000 1.0000
vt 0.0625 0.0000 1.0000
vt 0.1250 0.0000 1.0000
vt 0.1875 0.0000 1.0000
vt 0.2500 0.0000 1.0000
vt 0.3125 0.0000 1.0000
vt 0.3750 0.0000 1.0000
vt 0.4375 0.0000 1.0000
vt 0.5000 0.0000 1.0000
vt 0.5625 0.0000 1.0000
vt 0.6250 0.0000 1.0000
vt 0.6875 0.0000 1.0000
vt 0.7500 0.3333 1.0000
vt 0.8125 0.3333 1.0000
vt 0.8750 0.3333 1.0000
vt 0.9375 0.3333 1.0000
vt 0.0000 0.3333 1.0000
vt 0.0625 0.3333 1.0000
vt 0.1250 0.3333 1.0000
vt 0.1875 0.3333 1.0000
vt 0.2500 0.3333 1.0000
vt 0.3125 0.3333 1.0000
vt 0.3750 0.3333 1.0000
vt 0.4375 0.3333 1.0000
vt 0.5000 0.3333 1.0000
vt 0.5625 0.3333 1.0000
vt 0.6250 0.3333 1.0000
vt 0.6875 0.3333 1.0000
vt 0.7500 0.6667 1.0000
vt 0.8125 0.6667 1.0000
vt 0.8750 0.6667 1.0000
vt 0.9375 0.6667 1.0000
vt 0.0000 0.6667 1.0000
vt 0.0625 0.6667 1.0000
vt 0.1250 0.6667 1.0000
vt 0.1875 0.6667 1.0000
vt 0.2500 0.6667 1.0000
vt 0.3125 0.6667 1.0000
vt 0.3750 0.6667 1.0000
vt 0.4375 0.6667 1.0000
vt 0.5000 0.6667 1.0000
vt 0.5625 0.6667 1.0000
vt 0.6250 0.6667 1.0000
vt 0.6875 0.6667 1.0000
vt 0.7500 1.0000 1.0000
vt 0.8125 1.0000 1.0000
vt 0.8750 1.0000 1.0000
vt 0.9375 1.0000 1.0000
vt 0.0000 1.0000 1.0000
vt 0.0625 1.0000 1.0000
vt 0.1250 1.0000 1.0000
vt 0.1875 1.0000 1.0000
vt 0.2500 1.0000 1.0000
vt 0.3125 1.0000 1.0000
vt 0.3750 1.0000 1.0000
vt 0.4375 1.0000 1.0000
vt 0.5000 1.0000 1.0000
vt 0.5625 1.0000 1.0000
vt 0.6250 1.0000 1.0000
vt 0.6875 1.0000 1.0000
vt -0.0625 0.0000 1.0000
vt -0.0625 0.3333 1.0000
vt -0.0625 0.3333 1.0000
vt -0.0625 0.6667 1.0000
vt -0.0625 0.6667 1.0000
vt -0.0625 1.0000 1.0000
vt 0.9334 0.0000 0.8478
vt 0.8633 0.0000 0.5665
vt 0.7379 0.0000 0.1989
vt 0.5763 0.0000 -0.1989
vt 0.4031 0.0000 -0.5665
vt 0.2446 0.0000 -0.8478
vt 0.1250 0.0000 -1.0000
vt 0.0625 0.0000 -1.0000
vt 0.0666 0.0000 -0.8478
vt 0.1367 0.0000 -0.5665
vt 0.2621 0.0000 -0.1989
vt 0.4237 0.0000 0.1989
vt 0.9334 1.0000 0.8478
vt 0.8633 1.0000 0.5665
vt 0.7379 1.0000 0.1989
vt 0.5763 1.0000 -0.1989
vt 0.4031 1.0000 -0.5665
vt 0.2446 1.0000 -0.8478
vt 0.1250 1.0000 -1.0000
vt 0.0625 1.0000 -1.0000
vt 0.0666 1.0000 -0.8478
vt 0.1367 1.0000 -0.5665
vt 0.2621 1.0000 -0.1989
# 93 texture coords

g Cylinder001
usemtl wire_113135006
f 16/82/1 15/81/2 14/80/3 13/79/4 12/78/5 11/77/6 10/76/7 9/75/8 8/74/9 7/73/10 6/72/11 5/71/12 4/4/13 3/3/14 2/2/15 1/1/16 
f 1/1/17 2/2/18 18/18/19 17/17/20 
f 2/2/21 3/3/22 19/19/23 18/18/24 
f 3/3/25 4/4/26 20/20/27 19/19/28 
f 4/65/29 5/5/30 21/21/31 20/66/32 
f 5/5/33 6/6/34 22/22/35 21/21/36 
f 6/6/37 7/7/38 23/23/39 22/22/40 
f 7/7/41 8/8/42 24/24/43 23/23/44 
f 8/8/45 9/9/46 25/25/47 24/24/48 
f 9/9/49 10/10/50 26/26/51 25/25/52 
f 10/10/53 11/11/54 27/27/55 26/26/56 
f 11/11/57 12/12/58 28/28/59 27/27/60 
f 12/12/61 13/13/62 29/29/63 28/28/64 
f 13/13/65 14/14/66 30/30/67 29/29/68 
f 14/14/69 15/15/70 31/31/71 30/30/72 
f 15/15/73 16/16/74 32/32/75 31/31/76 
f 16/16/77 1/1/78 17/17/79 32/32/80 
f 17/17/81 18/18/82 34/34/83 33/33/84 
f 18/18/85 19/19/86 35/35/87 34/34/88 
f 19/19/89 20/20/90 36/36/91 35/35/92 
f 20/67/93 21/21/94 37/37/95 36/68/96 
f 21/21/97 22/22/98 38/38/99 37/37/100 
f 22/22/101 23/23/102 39/39/103 38/38/104 
f 23/23/105 24/24/106 40/40/107 39/39/108 
f 24/24/109 25/25/110 41/41/111 40/40/112 
f 25/25/113 26/26/114 42/42/115 41/41/116 
f 26/26/117 27/27/118 43/43/119 42/42/120 
f 27/27/121 28/28/122 44/44/123 43/43/124 
f 28/28/125 29/29/126 45/45/127 44/44/128 
f 29/29/129 30/30/130 46/46/131 45/45/132 
f 30/30/133 31/31/134 47/47/135 46/46/136 
f 31/31/137 32/32/138 48/48/139 47/47/140 
f 32/32/141 17/17/142 33/33/143 48/48/144 
f 33/33/145 34/34/146 50/50/147 49/49/148 
f 34/34/149 35/35/150 51/51/151 50/50/152 
f 35/35/153 36/36/154 52/52/155 51/51/156 
f 36/69/157 37/37/158 53/53/159 52/70/160 
f 37/37/161 38/38/162 54/54/163 53/53/164 
f 38/38/165 39/39/166 55/55/167 54/54/168 
f 39/39/169 40/40/170 56/56/171 55/55/172 
f 40/40/173 41/41/174 57/57/175 56/56/176 
f 41/41/177 42/42/178 58/58/179 57/57/180 
f 42/42/181 43/43/182 59/59/183 58/58/184 
f 43/43/185 44/44/186 60/60/187 59/59/188 
f 44/44/189 45/45/190 61/61/191 60/60/192 
f 45/45/193 46/46/194 62/62/195 61/61/196 
f 46/46/197 47/47/198 63/63/199 62/62/200 
f 47/47/201 48/48/202 64/64/203 63/63/204 
f 48/48/205 33/33/206 49/49/207 64/64/208 
f 64/64/209 49/49/210 50/50/211 51/51/212 52/52/213 53/83/214 54/84/215 55/85/216 56/86/217 57/87/218 58/88/219 59/89/220 60/90/221 61/91/222 62/92/223 63/93/224 
# 50 polygons

