v 0.0000 0.0000 0.0000
v 1.0000 0.0000 0.0000
v 0.0000 1.0000 0.0000
v 1.0000 1.0000 0.0000
v 0.0000 0.0000 1.0000
v 1.0000 0.0000 1.0000
v 0.0000 1.0000 1.0000
v 1.0000 1.0000 1.0000
# 8 vertices

# 0 texture coords

vn 0.0000 0.0000 -1.0000
vn 0.0000 0.0000 -1.0000
vn 0.0000 0.0000 -1.0000
vn 0.0000 0.0000 -1.0000
vn 0.0000 0.0000 1.0000
vn 0.0000 0.0000 1.0000
vn 0.0000 0.0000 1.0000
vn 0.0000 0.0000 1.0000
vn 0.0000 -1.0000 0.0000
vn 0.0000 -1.0000 0.0000
vn 0.0000 -1.0000 0.0000
vn 0.0000 -1.0000 0.0000
vn 1.0000 0.0000 0.0000
vn 1.0000 0.0000 0.0000
vn 1.0000 0.0000 0.0000
vn 1.0000 0.0000 0.0000
vn 0.0000 1.0000 0.0000
vn 0.0000 1.0000 0.0000
vn 0.0000 1.0000 0.0000
vn 0.0000 1.0000 0.0000
vn -1.0000 0.0000 0.0000
vn -1.0000 0.0000 0.0000
vn -1.0000 0.0000 0.0000
vn -1.0000 0.0000 0.0000
# 24 normals

f 1//1 3//2 4//3
f 2//4 1//1 4//3
f 5//5 6//6 8//7
f 7//8 5//5 8//7
f 1//9 2//10 6//11
f 5//12 1//9 6//11
f 2//13 4//14 8//15
f 6//16 2//13 8//15
f 4//17 3//18 7//19
f 8//20 4//17 7//19
f 3//21 1//22 5//23
f 7//24 3//21 5//23
# 0 polygons - 12 triangles
